# xmcd
#
# Track frame offsets: 
#        150
#        9793
#        18816
#        28307
#        39550
#        49870
#        60230
#        70809
#        83293
#        92993
#        103194
#        115926
#        126927
#        136960
#        147780
#        157577
#        165863
#        178127
#
# Disc length: 2537 seconds
#
# Revision: 0
# Processed by: cddbd v1.5.2PL0 Copyright (c) Steve Scherf et al.
# Submitted via: ExactAudioCopyFreeDBPlugin 1.0
#
DISCID=d809e712
DTITLE=Del Shannon - The Runaway Hits Of Del Shannon Disc 2
DYEAR=2014
DGENRE=Country
TTITLE0=Keep Searchin' (We'll Follow The sun)
TTITLE1=So Long Baby
TTITLE2=The Swiss Maid
TTITLE3=Hey! Little Girl
TTITLE4=Break Up
TTITLE5=Two Silhouettes
TTITLE6=(Marie's The Name) His Latest Flame
TTITLE7=I'm Gonna Move On
TTITLE8=Ginny In The Mirror
TTITLE9=Day Dreams
TTITLE10=I Don't Care Anymore
TTITLE11=The Wamboo
TTITLE12=I'll Always Love You
TTITLE13=Jody
TTITLE14=You Never Talked About Me
TTITLE15=Sorry (I Ran All The Way Home)
TTITLE16=The Answer To EveryThing
TTITLE17=Sea Of Love
EXTD=
EXTT0=
EXTT1=
EXTT2=
EXTT3=
EXTT4=
EXTT5=
EXTT6=
EXTT7=
EXTT8=
EXTT9=
EXTT10=
EXTT11=
EXTT12=
EXTT13=
EXTT14=
EXTT15=
EXTT16=
EXTT17=
PLAYORDER=
